<?xml version="1.0" encoding="UTF-8" standalone="no"?>
<!-- Created with Inkscape (http://www.inkscape.org/) -->

<svg
   width="77.476112mm"
   height="79.702286mm"
   viewBox="0 0 77.476112 79.702286"
   version="1.1"
   id="svg5"
   inkscape:version="1.2 (dc2aeda, 2022-05-15)"
   sodipodi:docname="daynight.svg"
   xmlns:inkscape="http://www.inkscape.org/namespaces/inkscape"
   xmlns:sodipodi="http://sodipodi.sourceforge.net/DTD/sodipodi-0.dtd"
   xmlns="http://www.w3.org/2000/svg"
   xmlns:svg="http://www.w3.org/2000/svg">
  <sodipodi:namedview
     id="namedview7"
     pagecolor="#ffffff"
     bordercolor="#999999"
     borderopacity="1"
     inkscape:pageshadow="0"
     inkscape:pageopacity="0"
     inkscape:pagecheckerboard="true"
     inkscape:document-units="mm"
     showgrid="false"
     inkscape:zoom="0.75722503"
     inkscape:cx="80.557295"
     inkscape:cy="237.04974"
     inkscape:window-width="1920"
     inkscape:window-height="1009"
     inkscape:window-x="0"
     inkscape:window-y="0"
     inkscape:window-maximized="1"
     inkscape:current-layer="layer1"
     inkscape:showpageshadow="2"
     inkscape:deskcolor="#d1d1d1" />
  <defs
     id="defs2" />
  <g
     inkscape:label="Livello 1"
     inkscape:groupmode="layer"
     id="layer1"
     transform="translate(-40.132719,-23.675721)">
    <path
       id="path914"
       style="fill:none;stroke:#4856cc;stroke-width:1.11178;stroke-linecap:square;stroke-opacity:1;paint-order:markers fill stroke"
       d="M 117.05294,65.689406 A 30.748238,30.748238 0 0 1 86.304696,96.437646 30.748238,30.748238 0 0 1 55.556464,65.689406 30.748238,30.748238 0 0 1 86.304696,34.941176 30.748238,30.748238 0 0 1 117.05294,65.689406 Z" />
    <path
       id="path914-6"
       style="fill:#4856cc;fill-opacity:1;stroke:#4856cc;stroke-width:1.11178;stroke-linecap:square;stroke-opacity:1;paint-order:markers fill stroke"
       d="M 86.304946,34.941159 A 30.748237,30.748237 0 0 0 76.749456,36.47905 29.001177,29.001177 0 0 1 96.437662,63.941974 29.001177,29.001177 0 0 1 71.553916,92.647199 30.748237,30.748237 0 0 0 86.304946,96.437664 30.748237,30.748237 0 0 0 117.05294,65.689152 30.748237,30.748237 0 0 0 86.304946,34.941159 Z" />
    <rect
       style="fill:none;fill-opacity:1;stroke:#4856cc;stroke-width:0.671097;stroke-linecap:square;stroke-miterlimit:4;stroke-dasharray:none;stroke-opacity:1;paint-order:markers fill stroke"
       id="rect2005-7"
       width="12.443882"
       height="4.0073514"
       x="61.178783"
       y="10.13416"
       ry="2.0036757"
       transform="rotate(30.757258)" />
    <rect
       style="fill:none;fill-opacity:1;stroke:#4856cc;stroke-width:0.671097;stroke-linecap:square;stroke-miterlimit:4;stroke-dasharray:none;stroke-opacity:1;paint-order:markers fill stroke"
       id="rect2005-7-5"
       width="12.443882"
       height="4.0073514"
       x="54.861084"
       y="-40.457405"
       ry="2.0036757"
       transform="rotate(56.337277)" />
    <rect
       style="fill:none;fill-opacity:1;stroke:#4856cc;stroke-width:0.671097;stroke-linecap:square;stroke-miterlimit:4;stroke-dasharray:none;stroke-opacity:1;paint-order:markers fill stroke"
       id="rect2005-7-2"
       width="12.443882"
       height="4.0073514"
       x="-31.40954"
       y="110.39771"
       ry="2.0036757"
       transform="rotate(-44.242742)" />
    <rect
       style="fill:none;fill-opacity:1;stroke:#4856cc;stroke-width:0.671097;stroke-linecap:square;stroke-miterlimit:4;stroke-dasharray:none;stroke-opacity:1;paint-order:markers fill stroke"
       id="rect2005-7-5-2"
       width="12.443882"
       height="4.0073514"
       x="14.638885"
       y="89.955605"
       ry="2.0036757"
       transform="rotate(-18.662723)" />
    <rect
       style="fill:none;fill-opacity:1;stroke:#4856cc;stroke-width:0.671097;stroke-linecap:square;stroke-miterlimit:4;stroke-dasharray:none;stroke-opacity:1;paint-order:markers fill stroke"
       id="rect2005-7-6"
       width="12.443882"
       height="4.0073514"
       x="40.798405"
       y="60.293171"
       ry="2.0036757"
       transform="rotate(0.30308467)" />
  </g>
</svg>
