
                  <!--?xml version="1.0" encoding="UTF-8" standalone="no"?-->
                  <!-- Created with Inkscape (http://www.inkscape.org/) -->
                  
                  <svg width="48.218761mm" height="48.218761mm" viewBox="0 0 48.218761 48.218761" version="1.1" id="svg5" inkscape:version="1.1 (c68e22c387, 2021-05-23)" sodipodi:docname="Question Mark.svg" xmlns:inkscape="http://www.inkscape.org/namespaces/inkscape" xmlns:sodipodi="http://sodipodi.sourceforge.net/DTD/sodipodi-0.dtd" xmlns="http://www.w3.org/2000/svg" xmlns:svg="http://www.w3.org/2000/svg">
                    <sodipodi:namedview id="namedview7" pagecolor="#ffffff" bordercolor="#999999" borderopacity="1" inkscape:pageshadow="0" inkscape:pageopacity="0" inkscape:pagecheckerboard="true" inkscape:document-units="mm" showgrid="false" inkscape:zoom="0.75722503" inkscape:cx="146.58786" inkscape:cy="163.09551" inkscape:window-width="1920" inkscape:window-height="1009" inkscape:window-x="-8" inkscape:window-y="-8" inkscape:window-maximized="1" inkscape:current-layer="layer1" fit-margin-top="0" fit-margin-left="0" fit-margin-right="0" fit-margin-bottom="0"></sodipodi:namedview>
                    <defs id="defs2"></defs>
                    <g inkscape:label="Livello 1" inkscape:groupmode="layer" id="layer1" transform="translate(-27.952816,-29.350663)">
                      <path id="path846" style="color: rgb(0, 0, 0); fill: rgb(72, 86, 204); stroke-width: 6.22488; stroke-linecap: round; stroke-linejoin: round; paint-order: markers;" d="m 196.77148,110.93164 a 91.122183,91.122183 0 0 0 -91.12304,91.12109 91.122183,91.122183 0 0 0 91.12304,91.12305 91.122183,91.122183 0 0 0 91.1211,-91.12305 91.122183,91.122183 0 0 0 -91.1211,-91.12109 z m 0.0937,58.60938 c 9.13068,0 15.35938,5.88807 15.35938,14.08007 0,6.31468 -3.66837,10.24064 -6.48438,13.05664 -3.66933,3.58401 -7.08203,6.22999 -7.08203,9.47266 0,0.93867 0.25423,2.30384 0.85157,3.83984 0.42666,0.93867 0.002,1.87742 -0.85157,2.21875 l -5.54687,2.13282 c -0.93867,0.34133 -1.96261,-7.9e-4 -2.47461,-0.93946 -1.28,-2.56 -1.96289,-5.11968 -1.96289,-7.67968 0,-5.97334 3.58265,-9.47087 8.36133,-13.90821 3.92533,-3.66933 5.46289,-5.63215 5.46289,-8.02148 0,-2.98667 -2.39,-4.94922 -5.88867,-4.94922 -3.07201,0 -6.48599,1.45051 -9.47266,3.83984 -0.85334,0.68267 -1.87728,0.59687 -2.47461,-0.34179 l -2.98633,-4.4375 c -0.59733,-0.85334 -0.4262,-1.96187 0.3418,-2.64453 4.43734,-3.66934 9.47165,-5.71875 14.84765,-5.71875 z m -2.21875,50.85937 c 3.92534,0 7.08204,3.15669 7.08204,7.08203 0,3.92534 -3.1567,7.08399 -7.08204,7.08399 -3.92533,0 -7.08203,-3.15865 -7.08203,-7.08399 0,-3.92534 3.1567,-7.08203 7.08203,-7.08203 z" transform="scale(0.26458333)"></path>
                    </g>
                  </svg>
                  