
                  <!--?xml version="1.0" encoding="UTF-8" standalone="no"?-->
                  <!-- Created with Inkscape (http://www.inkscape.org/) -->
                  
                  <svg width="55.556297mm" height="55.556301mm" viewBox="0 0 55.556297 55.556301" version="1.1" id="svg5" sodipodi:docname="info.svg" inkscape:version="1.1 (c68e22c387, 2021-05-23)" xmlns:inkscape="http://www.inkscape.org/namespaces/inkscape" xmlns:sodipodi="http://sodipodi.sourceforge.net/DTD/sodipodi-0.dtd" xmlns="http://www.w3.org/2000/svg" xmlns:svg="http://www.w3.org/2000/svg">
                    <sodipodi:namedview id="namedview7" pagecolor="#ffffff" bordercolor="#999999" borderopacity="1" inkscape:pageshadow="0" inkscape:pageopacity="0" inkscape:pagecheckerboard="true" inkscape:document-units="mm" showgrid="false" inkscape:zoom="1.0708779" inkscape:cx="169.95402" inkscape:cy="41.554691" inkscape:window-width="1920" inkscape:window-height="1009" inkscape:window-x="-8" inkscape:window-y="-8" inkscape:window-maximized="1" inkscape:current-layer="layer1" fit-margin-top="0" fit-margin-left="0" fit-margin-right="0" fit-margin-bottom="0"></sodipodi:namedview>
                    <defs id="defs2"></defs>
                    <g inkscape:label="Livello 1" inkscape:groupmode="layer" id="layer1" transform="translate(-45.772916,-61.496503)">
                      <path id="path846" style="color: rgb(0, 0, 0); fill: rgb(199, 67, 26); stroke-width: 6.22488; stroke-linecap: round; stroke-linejoin: round; paint-order: markers;" d="M 277.98828,232.42773 A 104.98861,104.98861 0 0 0 173,337.41602 104.98861,104.98861 0 0 0 277.98828,442.4043 104.98861,104.98861 0 0 0 382.97656,337.41602 104.98861,104.98861 0 0 0 277.98828,232.42773 Z m -2.90039,71.23829 h 5.80273 c 1.02401,0 1.79102,0.76896 1.79102,1.79296 v 9.30079 c 0,1.024 -0.76701,1.79296 -1.79102,1.79296 h -5.80273 c -1.024,0 -1.79297,-0.76896 -1.79297,-1.79296 v -9.30079 c 0,-1.024 0.76897,-1.79296 1.79297,-1.79296 z m -9.13086,18.60351 h 12.88477 c 2.38933,0 4.26758,1.87824 4.26758,4.26758 v 34.90039 h 6.9121 c 1.02401,0 1.79102,0.76897 1.79102,1.79297 v 6.14258 c 0,1.024 -0.76701,1.79297 -1.79102,1.79297 h -12.88671 c -2.38934,0 -4.26563,-1.87825 -4.26563,-4.26758 v -34.90039 h -6.91211 c -1.024,0 -1.79297,-0.76897 -1.79297,-1.79297 v -6.14453 c 0,-1.024 0.76897,-1.79102 1.79297,-1.79102 z" transform="scale(0.26458333)"></path>
                    </g>
                  </svg>
                  