<?xml version="1.0" encoding="UTF-8" standalone="no"?>
<!-- Created with Inkscape (http://www.inkscape.org/) -->

<svg
   width="82.435799mm"
   height="36.357471mm"
   viewBox="0 0 82.435799 36.357471"
   version="1.1"
   id="svg5"
   inkscape:version="1.2 (dc2aeda, 2022-05-15)"
   sodipodi:docname="log2.svg"
   xmlns:inkscape="http://www.inkscape.org/namespaces/inkscape"
   xmlns:sodipodi="http://sodipodi.sourceforge.net/DTD/sodipodi-0.dtd"
   xmlns="http://www.w3.org/2000/svg"
   xmlns:svg="http://www.w3.org/2000/svg">
  <sodipodi:namedview
     id="namedview7"
     pagecolor="#ffffff"
     bordercolor="#000000"
     borderopacity="0.25"
     inkscape:showpageshadow="2"
     inkscape:pageopacity="0.0"
     inkscape:pagecheckerboard="true"
     inkscape:deskcolor="#d1d1d1"
     inkscape:document-units="mm"
     showgrid="false"
     inkscape:zoom="1.0557596"
     inkscape:cx="124.08127"
     inkscape:cy="197.48814"
     inkscape:window-width="1920"
     inkscape:window-height="1009"
     inkscape:window-x="0"
     inkscape:window-y="0"
     inkscape:window-maximized="1"
     inkscape:current-layer="layer1" />
  <defs
     id="defs2" />
  <g
     inkscape:label="Livello 1"
     inkscape:groupmode="layer"
     id="layer1"
     transform="translate(-67.379013,-72.106787)">
    <path
       id="rect1247"
       style="fill:#c7431a;fill-opacity:1;stroke:none;stroke-width:2.43999"
       d="m 74.527414,72.106787 c -3.96041,0 -7.148401,3.188507 -7.148401,7.148918 v 22.060155 c 0,3.96041 3.187991,7.1484 7.148401,7.1484 h 68.138996 c 3.96041,0 7.1484,-3.18799 7.1484,-7.1484 V 79.255705 c 0,-3.960411 -3.18799,-7.148918 -7.1484,-7.148918 z m 29.875186,4.837431 c 4.1341,0 7.37251,1.182996 9.71517,3.548621 2.34265,2.365624 3.51399,5.632917 3.51399,9.801469 0,4.157068 -1.17134,7.418274 -3.51399,9.783902 -2.34266,2.36562 -5.58107,3.54862 -9.71517,3.54862 -4.12262,0 -7.361033,-1.183 -9.715173,-3.54862 -2.34266,-2.365628 -3.514,-5.626834 -3.514,-9.783902 0,-4.168552 1.17134,-7.435845 3.514,-9.801469 2.35414,-2.365625 5.592553,-3.548621 9.715173,-3.548621 z m 31.05753,0 c 1.71106,0 3.34749,0.161117 4.90926,0.482658 1.57326,0.321541 3.05466,0.797771 4.44418,1.42937 v 5.322673 c -1.43546,-0.815337 -2.86518,-1.423802 -4.28915,-1.825729 -1.41248,-0.401926 -2.83107,-0.603064 -4.25503,-0.603064 -2.64124,0 -4.67943,0.740701 -6.11488,2.222087 -1.42397,1.469902 -2.13578,3.577511 -2.13578,6.322095 0,2.721616 0.68902,4.823138 2.06705,6.304524 1.37804,1.481387 3.33567,2.222087 5.87355,2.222087 0.68901,0 1.32636,-0.04054 1.91202,-0.120923 0.59715,-0.09187 1.13115,-0.229674 1.60197,-0.413411 v -4.995044 h -4.04781 v -4.444174 h 10.33529 v 12.367723 c -1.65365,0.80385 -3.37063,1.40675 -5.15059,1.80867 -1.77996,0.40193 -3.61702,0.60307 -5.51181,0.60307 -4.28339,0 -7.67683,-1.19465 -10.18026,-3.58325 -2.50343,-2.400072 -3.75533,-5.649622 -3.75533,-9.749272 0,-4.145585 1.2747,-7.407308 3.82406,-9.784416 2.54936,-2.377108 6.04059,-3.565674 10.47326,-3.565674 z m -64.0271,0.465088 h 6.631636 v 20.705196 h 11.644767 v 5.012618 H 71.43303 Z m 32.96957,4.34082 c -2.02112,0 -3.58865,0.746787 -4.702563,2.239657 -1.11391,1.49287 -1.6707,3.594392 -1.6707,6.304525 0,2.698649 0.55679,4.794084 1.6707,6.286954 1.113913,1.49287 2.681443,2.239657 4.702563,2.239657 2.0326,0 3.60569,-0.746787 4.7196,-2.239657 1.11392,-1.49287 1.67122,-3.588305 1.67122,-6.286954 0,-2.710133 -0.5573,-4.811655 -1.67122,-6.304525 -1.11391,-1.49287 -2.687,-2.239657 -4.7196,-2.239657 z" />
  </g>
</svg>
