
                  <!--?xml version="1.0" encoding="UTF-8" standalone="no"?-->
                  <!-- Created with Inkscape (http://www.inkscape.org/) -->
                  
                  <svg width="29.577919mm" height="43.580639mm" viewBox="0 0 29.577919 43.580639" version="1.1" id="svg5" inkscape:version="1.1 (c68e22c387, 2021-05-23)" sodipodi:docname="logout.svg" xmlns:inkscape="http://www.inkscape.org/namespaces/inkscape" xmlns:sodipodi="http://sodipodi.sourceforge.net/DTD/sodipodi-0.dtd" xmlns="http://www.w3.org/2000/svg" xmlns:svg="http://www.w3.org/2000/svg">
                    <sodipodi:namedview id="namedview7" pagecolor="#ffffff" bordercolor="#999999" borderopacity="1" inkscape:pageshadow="0" inkscape:pageopacity="0" inkscape:pagecheckerboard="true" inkscape:document-units="mm" showgrid="false" fit-margin-top="0" fit-margin-left="0" fit-margin-right="0" fit-margin-bottom="0" inkscape:zoom="1.0708779" inkscape:cx="186.76265" inkscape:cy="4.2021597" inkscape:window-width="1920" inkscape:window-height="1009" inkscape:window-x="-8" inkscape:window-y="-8" inkscape:window-maximized="1" inkscape:current-layer="layer1"></sodipodi:namedview>
                    <defs id="defs2"></defs>
                    <g inkscape:label="Livello 1" inkscape:groupmode="layer" id="layer1" transform="translate(-56.773278,-49.699292)">
                      <path id="rect1552" style="color: rgb(0, 0, 0); fill: rgb(199, 67, 26); stroke-width: 1; stroke-linecap: round; stroke-linejoin: round; paint-order: markers;" d="m 79.345442,61.980237 a 0.49059282,0.49066227 0 0 0 -0.392739,0.24443 0.49059282,0.49066227 0 0 0 0.179316,0.670243 l 4.107243,2.371432 h -9.211841 c -0.510413,0 -0.947227,0.436816 -0.947227,0.947229 0,0.510413 0.436814,0.947229 0.947227,0.947229 h 9.211325 l -4.106727,2.370914 a 0.49059282,0.49066227 0 0 0 -0.179316,0.67076 0.49059282,0.49066227 0 0 0 0.670242,0.179318 l 6.48281,-3.743441 a 0.4906419,0.49071135 0 0 0 0,-0.850077 l -6.48281,-3.743441 a 0.49059282,0.49066227 0 0 0 -0.277503,-0.0646 z M 58.19128,49.699292 c -0.333228,0 -0.64272,0.121295 -0.887285,0.320911 -0.09639,0.05655 -0.176365,0.139501 -0.236678,0.245463 -0.183065,0.239359 -0.294038,0.535787 -0.294039,0.853695 v 34.140551 c 1e-6,0.483637 0.25441,0.917691 0.63407,1.174604 0.200922,0.28144 0.451217,0.518769 0.720886,0.658876 l 11.654069,6.054926 c 0.644967,0.335098 1.185457,0.007 1.185457,-0.719852 v -5.750552 h 4.07107 c 0.771479,0 1.418001,-0.646525 1.418001,-1.418002 V 67.942106 H 74.81042 V 85.031502 H 70.96776 V 58.068807 c 0,-0.726824 -0.54049,-1.616722 -1.185457,-1.951819 L 60.601985,51.347771 H 74.81042 v 13.259138 h 1.646411 V 51.119361 c 0,-0.771478 -0.646522,-1.420069 -1.418001,-1.420069 z"></path>
                    </g>
                  </svg>
                  