
                        <!--?xml version="1.0" encoding="UTF-8" standalone="no"?-->
                        <!-- Created with Inkscape (http://www.inkscape.org/) -->
                        
                        <svg width="55.556297mm" height="55.556301mm" viewBox="0 0 55.556297 55.556301" version="1.1" id="svg5" sodipodi:docname="remove.svg" inkscape:version="1.1 (c68e22c387, 2021-05-23)" xmlns:inkscape="http://www.inkscape.org/namespaces/inkscape" xmlns:sodipodi="http://sodipodi.sourceforge.net/DTD/sodipodi-0.dtd" xmlns="http://www.w3.org/2000/svg" xmlns:svg="http://www.w3.org/2000/svg">
                          <sodipodi:namedview id="namedview7" pagecolor="#ffffff" bordercolor="#999999" borderopacity="1" inkscape:pageshadow="0" inkscape:pageopacity="0" inkscape:pagecheckerboard="true" inkscape:document-units="mm" showgrid="false" inkscape:zoom="1.0708779" inkscape:cx="342.70947" inkscape:cy="49.95901" inkscape:window-width="1920" inkscape:window-height="1009" inkscape:window-x="-8" inkscape:window-y="-8" inkscape:window-maximized="1" inkscape:current-layer="layer1" fit-margin-top="0" fit-margin-left="0" fit-margin-right="0" fit-margin-bottom="0"></sodipodi:namedview>
                          <defs id="defs2"></defs>
                          <g inkscape:label="Livello 1" inkscape:groupmode="layer" id="layer1" transform="translate(-45.772916,-61.496503)">
                            <path id="path846" style="color:#000000;fill:#000000;stroke-width:6.22488;stroke-linecap:round;stroke-linejoin:round;-inkscape-stroke:none;paint-order:markers fill stroke" d="M 277.98828,232.42773 A 104.98861,104.98861 0 0 0 173,337.41602 104.98861,104.98861 0 0 0 277.98828,442.4043 104.98861,104.98861 0 0 0 382.97656,337.41602 104.98861,104.98861 0 0 0 277.98828,232.42773 Z m -62.98047,90.42774 H 340.9707 c 5.43935,0 9.81836,4.37903 9.81836,9.81836 v 9.48437 c 0,5.43936 -4.37901,9.81836 -9.81836,9.81836 H 215.00781 c -5.43938,0 -9.81836,-4.379 -9.81836,-9.81836 v -9.48437 c 0,-5.43933 4.37898,-9.81836 9.81836,-9.81836 z" transform="scale(0.26458333)"></path>
                          </g>
                        </svg>
                    