<?xml version="1.0" encoding="UTF-8" standalone="no"?>
<!--?xml version="1.0" encoding="UTF-8" standalone="no"?-->

<!-- Created with Inkscape (http://www.inkscape.org/) -->

<svg
   width="175.9921mm"
   height="113.16026mm"
   viewBox="0 0 175.99209 113.16025"
   version="1.1"
   id="svg5"
   inkscape:version="1.2 (dc2aeda, 2022-05-15)"
   sodipodi:docname="move.svg"
   xmlns:inkscape="http://www.inkscape.org/namespaces/inkscape"
   xmlns:sodipodi="http://sodipodi.sourceforge.net/DTD/sodipodi-0.dtd"
   xmlns="http://www.w3.org/2000/svg"
   xmlns:svg="http://www.w3.org/2000/svg">
  <sodipodi:namedview
     id="namedview7"
     pagecolor="#ffffff"
     bordercolor="#999999"
     borderopacity="1"
     inkscape:pageshadow="0"
     inkscape:pageopacity="0"
     inkscape:pagecheckerboard="true"
     inkscape:document-units="mm"
     showgrid="false"
     fit-margin-top="0"
     fit-margin-left="0"
     fit-margin-right="0"
     fit-margin-bottom="0"
     inkscape:zoom="0.53543895"
     inkscape:cx="-80.307942"
     inkscape:cy="256.79865"
     inkscape:window-width="1920"
     inkscape:window-height="1009"
     inkscape:window-x="0"
     inkscape:window-y="0"
     inkscape:window-maximized="1"
     inkscape:current-layer="layer1"
     inkscape:showpageshadow="2"
     inkscape:deskcolor="#d1d1d1" />
  <defs
     id="defs2" />
  <g
     inkscape:label="Livello 1"
     inkscape:groupmode="layer"
     id="layer1"
     transform="translate(-48.541738,-47.493596)">
    <g
       id="rect846"
       transform="scale(0.26458333)" />
    <path
       id="rect846-4"
       style="color:#000000;fill:#ffffff;fill-opacity:1;stroke-linecap:round;stroke-linejoin:round;-inkscape-stroke:none;paint-order:markers fill stroke"
       transform="matrix(1,0,-0.46025337,0.88778761,0,0)"
       d="m 112.72852,84.337891 c -2.77142,0 -5.05079,2.279367 -5.05079,5.050781 v 27.277348 c 0,2.77141 2.27937,5.05078 5.05079,5.05078 h 63.13085 c 2.77142,0 5.05079,-2.27937 5.05079,-5.05078 V 89.388672 c 0,-2.771414 -2.27937,-5.050781 -5.05079,-5.050781 z m 0,3.105468 h 63.13085 c 1.10487,0 1.94532,0.840445 1.94532,1.945313 v 27.277348 c 0,1.10486 -0.84045,1.94726 -1.94532,1.94726 h -63.13085 c -1.10487,0 -1.94532,-0.8424 -1.94532,-1.94726 V 89.388672 c 0,-1.104868 0.84045,-1.945313 1.94532,-1.945313 z M 79.43111,53.496739 c -3.441398,0 -4.802285,3.1831 -3.018168,7.059479 l 6.521068,14.168432 0.23147,0.502918 17.93328,38.963922 c 0.44917,0.97594 1.05915,1.91469 1.76965,2.76372 a 2.4142384,1.4677802 45 0 0 3.27003,0.0751 c -0.004,-0.10407 -0.004,-0.10755 -0.001,-0.0134 l -5.1e-4,0.001 -1.10163,-31.264735 c -0.0475,-1.349155 1.40078,-2.874897 2.72877,-2.874897 h 51.93175 a 2.4142384,1.4677802 45 0 0 0.85408,-1.997703 l -2.83336,-6.156089 c -1.78411,-3.876379 -6.07506,-7.059479 -9.51646,-7.059479 h -32.47296 l -3.27192,-7.108953 c -1.78412,-3.876379 -6.07506,-7.059479 -9.51646,-7.059479 z m 1.838899,3.995404 h 23.507611 c 1.53777,0 3.33327,1.331933 4.1305,3.064075 l 4.19137,9.106657 a 2.4142384,1.4677802 45 0 0 2.69298,1.997701 h 34.24649 c 1.53777,0 3.33327,1.331935 4.1305,3.064074 l 1.91391,4.158389 h -50.15818 c -3.04512,0 -4.99171,2.051222 -4.88271,5.145013 L 101.89471,108.2141 86.71255,75.227568 86.481081,74.72465 79.960012,60.556218 c -0.797224,-1.732142 -0.22777,-3.064075 1.309997,-3.064075 z m -0.91945,-1.997703 c -2.489586,0 -3.454752,2.257516 -2.164081,5.061778 l 6.521069,14.168432 0.23147,0.502918 17.933273,38.963922 c 0.32452,0.70508 0.76015,1.37497 1.26959,1.98373 -2.7e-4,-0.007 -0.001,-0.013 -0.001,-0.0198 L 103.0389,84.890699 c -0.0783,-2.221476 1.61918,-4.009957 3.80574,-4.009957 h 51.93171 l -2.83336,-6.156089 c -1.29067,-2.804262 -4.33389,-5.061775 -6.82348,-5.061775 h -34.24649 l -4.19137,-9.10666 c -1.29067,-2.804262 -4.33389,-5.061778 -6.82348,-5.061778 z" />
    <rect
       style="fill:#ffffff;stroke-width:0.349723;fill-opacity:1"
       id="rect4160"
       width="5.9048114"
       height="27.700554"
       x="91.533974"
       y="122.28932"
       ry="2.9524057" />
    <rect
       style="fill:#ffffff;stroke-width:0.349723;fill-opacity:1"
       id="rect4160-6"
       width="5.9048114"
       height="27.700554"
       x="144.54211"
       y="-119.3065"
       ry="2.9524057"
       transform="rotate(90)" />
    <path
       id="rect4160-6-7-5"
       style="fill:#ffffff;stroke-width:0.201091;fill-opacity:1"
       d="m 126.39584,146.46058 c 0.66503,0.66503 0.66503,1.73579 0,2.40081 l -8.86185,8.86186 c -0.66503,0.66502 -1.73579,0.66502 -2.40081,0 -0.66503,-0.66503 -0.66503,-1.73579 0,-2.40082 l 8.86185,-8.86185 c 0.66503,-0.66502 1.73579,-0.66503 2.40081,0 z m -0.0488,2.11434 c -0.66503,0.66503 -1.73579,0.66503 -2.40082,1e-5 l -8.86185,-8.86185 c -0.66503,-0.66503 -0.66503,-1.7358 0,-2.40083 0.66502,-0.66502 1.73579,-0.66502 2.40082,1e-5 l 8.86185,8.86185 c 0.66503,0.66503 0.66502,1.73579 0,2.40081 z" />
    <text
       xml:space="preserve"
       style="font-size:22.5778px;fill:#ffffff;fill-opacity:1;stroke:#ffffff;stroke-width:2.43999;stroke-dasharray:none;stroke-opacity:1"
       x="90.390625"
       y="98.819237"
       id="text6682"><tspan
         sodipodi:role="line"
         id="tspan6680"
         style="stroke-width:2.43999;fill:#ffffff;fill-opacity:1;stroke:#ffffff;stroke-opacity:1"
         x="90.390625"
         y="98.819237">1</tspan></text>
    <path
       id="rect846-4-3"
       style="color:#000000;fill:#ffffff;fill-opacity:1;stroke-width:0.942225;stroke-linecap:round;stroke-linejoin:round;-inkscape-stroke:none;paint-order:markers fill stroke"
       d="m 158.17265,127.46932 c -2.77142,0 -6.09987,2.02359 -7.37543,4.48402 l -12.55449,24.21649 c -1.27555,2.46042 -0.0453,4.48402 2.72615,4.48402 h 63.13085 c 2.77142,0 6.09988,-2.0236 7.37543,-4.48402 l 12.55449,-24.21649 c 1.27556,-2.46043 0.0453,-4.48402 -2.72615,-4.48402 z m -1.4293,2.75699 h 63.13085 c 1.10487,0 1.5585,0.74614 1.04998,1.72703 l -12.55449,24.21649 c -0.50851,0.98088 -1.73668,1.72875 -2.84155,1.72875 h -63.13085 c -1.10487,0 -1.5576,-0.74787 -1.04909,-1.72875 l 12.55449,-24.21649 c 0.50852,-0.98089 1.73579,-1.72703 2.84066,-1.72703 z m -17.67336,-30.13739 c -3.4414,0 -6.26732,2.82592 -6.26732,6.26732 v 12.57856 0.44648 34.59169 c -1e-5,0.86643 0.17791,1.69984 0.49764,2.4536 a 1.7736794,1.7736794 0 0 0 3.23547,0.0667 c 0.0439,-0.0924 0.0455,-0.0955 0.005,-0.0119 l -9.7e-4,8.9e-4 13.28807,-27.75644 c 0.57346,-1.19777 2.72396,-2.5523 4.05195,-2.5523 h 51.93175 a 1.7736794,1.7736794 0 0 0 1.77353,-1.77354 v -5.4653 c 1e-5,-3.4414 -2.82591,-6.26731 -6.26731,-6.26731 h -32.47296 v -6.31124 c 0,-3.44141 -2.82591,-6.26732 -6.26731,-6.26732 z m 0,3.54707 h 23.50761 c 1.53777,0 2.72024,1.18248 2.72025,2.72025 v 8.08478 a 1.7736794,1.7736794 0 0 0 1.77353,1.77353 h 34.24649 c 1.53777,0 2.72024,1.18248 2.72025,2.72025 v 3.69177 h -50.15818 c -3.04512,0 -5.9358,1.82105 -7.25072,4.56767 l -10.27948,21.47208 v -29.28504 -0.44648 -12.57856 c 0,-1.53777 1.18248,-2.72025 2.72025,-2.72025 z m 0,-1.77353 c -2.48959,0 -4.49379,2.00419 -4.49379,4.49378 l 1e-5,12.57856 v 0.44648 l -1e-5,34.59169 c 1e-5,0.62596 0.12732,1.22068 0.35657,1.76113 0.003,-0.006 0.005,-0.0115 0.008,-0.0176 l 13.28771,-27.75643 c 0.94414,-1.9722 3.46478,-3.55999 5.65134,-3.55999 h 51.93171 v -5.4653 c 0,-2.48959 -2.00419,-4.49378 -4.49378,-4.49378 h -34.24649 v -8.08478 c 0,-2.48959 -2.00419,-4.49378 -4.49378,-4.49378 z" />
    <text
       xml:space="preserve"
       style="font-size:22.5778px;fill:#ffffff;fill-opacity:1;stroke:#ffffff;stroke-width:2.43999;stroke-dasharray:none;stroke-opacity:1"
       x="174.65155"
       y="151.41441"
       id="text6682-5"><tspan
         sodipodi:role="line"
         id="tspan6680-6"
         style="stroke-width:2.43999;fill:#ffffff;fill-opacity:1;stroke:#ffffff;stroke-opacity:1"
         x="174.65155"
         y="151.41441">2</tspan></text>
  </g>
</svg>
