 
                    <!--?xml version="1.0" encoding="UTF-8" standalone="no"?-->
                    <!-- Created with Inkscape (http://www.inkscape.org/) -->
                    
                    <svg width="55.556297mm" height="55.556301mm" viewBox="0 0 55.556297 55.556301" version="1.1" id="svg5" inkscape:version="1.1 (c68e22c387, 2021-05-23)" sodipodi:docname="add.svg" xmlns:inkscape="http://www.inkscape.org/namespaces/inkscape" xmlns:sodipodi="http://sodipodi.sourceforge.net/DTD/sodipodi-0.dtd" xmlns="http://www.w3.org/2000/svg" xmlns:svg="http://www.w3.org/2000/svg">
                      <sodipodi:namedview id="namedview7" pagecolor="#ffffff" bordercolor="#999999" borderopacity="1" inkscape:pageshadow="0" inkscape:pageopacity="0" inkscape:pagecheckerboard="true" inkscape:document-units="mm" showgrid="false" fit-margin-top="0" fit-margin-left="0" fit-margin-right="0" fit-margin-bottom="0" inkscape:zoom="1.0708779" inkscape:cx="80.307941" inkscape:cy="133.06839" inkscape:window-width="1920" inkscape:window-height="1009" inkscape:window-x="-8" inkscape:window-y="-8" inkscape:window-maximized="1" inkscape:current-layer="layer1"></sodipodi:namedview>
                      <defs id="defs2"></defs>
                      <g inkscape:label="Livello 1" inkscape:groupmode="layer" id="layer1" transform="translate(-45.772916,-61.496503)">
                        <path id="path846" style="color:#000000;fill:#000000;stroke-width:6.22488;stroke-linecap:round;stroke-linejoin:round;-inkscape-stroke:none;paint-order:markers fill stroke" d="M 277.98828,232.42773 A 104.98861,104.98861 0 0 0 173,337.41602 104.98861,104.98861 0 0 0 277.98828,442.4043 104.98861,104.98861 0 0 0 382.97656,337.41602 104.98861,104.98861 0 0 0 277.98828,232.42773 Z m -4.55859,34.99024 h 9.11719 c 5.23003,0 9.4414,4.2114 9.4414,9.44141 v 46.55664 h 46.55664 c 5.23,0 9.44141,4.2114 9.44141,9.4414 v 9.11914 c 0,5.23001 -4.21141,9.43946 -9.44141,9.43946 h -46.55664 v 46.55859 c 0,5.23003 -4.21137,9.43945 -9.4414,9.43945 h -9.11719 c -5.23,0 -9.44141,-4.20942 -9.44141,-9.43945 v -46.55859 h -46.55859 c -5.23,0 -9.43946,-4.20945 -9.43946,-9.43946 v -9.11914 c 0,-5.23001 4.20945,-9.4414 9.43946,-9.4414 h 46.55859 v -46.55664 c 0,-5.23001 4.21141,-9.44141 9.44141,-9.44141 z" transform="scale(0.26458333)"></path>
                      </g>
                    </svg>
                    