
                  <!--?xml version="1.0" encoding="UTF-8" standalone="no"?-->
                  <!-- Created with Inkscape (http://www.inkscape.org/) -->
                  
                  <svg width="91.731163mm" height="60.565071mm" viewBox="0 0 91.731163 60.565071" version="1.1" id="svg5" inkscape:version="1.1 (c68e22c387, 2021-05-23)" sodipodi:docname="directory.svg" xmlns:inkscape="http://www.inkscape.org/namespaces/inkscape" xmlns:sodipodi="http://sodipodi.sourceforge.net/DTD/sodipodi-0.dtd" xmlns="http://www.w3.org/2000/svg" xmlns:svg="http://www.w3.org/2000/svg">
                    <sodipodi:namedview id="namedview7" pagecolor="#ffffff" bordercolor="#999999" borderopacity="1" inkscape:pageshadow="0" inkscape:pageopacity="0" inkscape:pagecheckerboard="true" inkscape:document-units="mm" showgrid="false" fit-margin-top="0" fit-margin-left="0" fit-margin-right="0" fit-margin-bottom="0" inkscape:zoom="1.0708779" inkscape:cx="171.82164" inkscape:cy="122.79645" inkscape:window-width="1920" inkscape:window-height="1009" inkscape:window-x="-8" inkscape:window-y="-8" inkscape:window-maximized="1" inkscape:current-layer="layer1"></sodipodi:namedview>
                    <defs id="defs2"></defs>
                    <g inkscape:label="Livello 1" inkscape:groupmode="layer" id="layer1" transform="translate(-48.541738,-47.493596)">
                      <g id="rect846" transform="scale(0.26458333)"></g>
                      <path id="rect846-4" style="color:#000000;fill:#000000;stroke-linecap:round;stroke-linejoin:round;-inkscape-stroke:none;paint-order:markers fill stroke" transform="matrix(1,0,-0.46025337,0.88778761,0,0)" d="m 112.72852,84.337891 c -2.77142,0 -5.05079,2.279367 -5.05079,5.050781 v 27.277348 c 0,2.77141 2.27937,5.05078 5.05079,5.05078 h 63.13085 c 2.77142,0 5.05079,-2.27937 5.05079,-5.05078 V 89.388672 c 0,-2.771414 -2.27937,-5.050781 -5.05079,-5.050781 z m 0,3.105468 h 63.13085 c 1.10487,0 1.94532,0.840445 1.94532,1.945313 v 27.277348 c 0,1.10486 -0.84045,1.94726 -1.94532,1.94726 h -63.13085 c -1.10487,0 -1.94532,-0.8424 -1.94532,-1.94726 V 89.388672 c 0,-1.104868 0.84045,-1.945313 1.94532,-1.945313 z M 79.43111,53.496739 c -3.441398,0 -4.802285,3.1831 -3.018168,7.059479 l 6.521068,14.168432 0.23147,0.502918 17.93328,38.963922 c 0.44917,0.97594 1.05915,1.91469 1.76965,2.76372 a 2.4142384,1.4677802 45 0 0 3.27003,0.0751 c -0.004,-0.10407 -0.004,-0.10755 -0.001,-0.0134 l -5.1e-4,0.001 -1.10163,-31.264735 c -0.0475,-1.349155 1.40078,-2.874897 2.72877,-2.874897 h 51.93175 a 2.4142384,1.4677802 45 0 0 0.85408,-1.997703 l -2.83336,-6.156089 c -1.78411,-3.876379 -6.07506,-7.059479 -9.51646,-7.059479 h -32.47296 l -3.27192,-7.108953 c -1.78412,-3.876379 -6.07506,-7.059479 -9.51646,-7.059479 z m 1.838899,3.995404 h 23.507611 c 1.53777,0 3.33327,1.331933 4.1305,3.064075 l 4.19137,9.106657 a 2.4142384,1.4677802 45 0 0 2.69298,1.997701 h 34.24649 c 1.53777,0 3.33327,1.331935 4.1305,3.064074 l 1.91391,4.158389 h -50.15818 c -3.04512,0 -4.99171,2.051222 -4.88271,5.145013 L 101.89471,108.2141 86.71255,75.227568 86.481081,74.72465 79.960012,60.556218 c -0.797224,-1.732142 -0.22777,-3.064075 1.309997,-3.064075 z m -0.91945,-1.997703 c -2.489586,0 -3.454752,2.257516 -2.164081,5.061778 l 6.521069,14.168432 0.23147,0.502918 17.933273,38.963922 c 0.32452,0.70508 0.76015,1.37497 1.26959,1.98373 -2.7e-4,-0.007 -0.001,-0.013 -0.001,-0.0198 L 103.0389,84.890699 c -0.0783,-2.221476 1.61918,-4.009957 3.80574,-4.009957 h 51.93171 l -2.83336,-6.156089 c -1.29067,-2.804262 -4.33389,-5.061775 -6.82348,-5.061775 h -34.24649 l -4.19137,-9.10666 c -1.29067,-2.804262 -4.33389,-5.061778 -6.82348,-5.061778 z"></path>
                    </g>
                  </svg>
                  